<?xml version="1.0" encoding="utf-8"?>
<!-- Generator: Adobe Illustrator 25.0.0, SVG Export Plug-In . SVG Version: 6.00 Build 0)  -->
<svg version="1.1" xmlns="http://www.w3.org/2000/svg" xmlns:xlink="http://www.w3.org/1999/xlink" x="0px" y="0px"
	 viewBox="0 0 192 34.3" style="enable-background:new 0 0 192 34.3;" xml:space="preserve">
<style type="text/css">
	.st0{fill:#020202;}
	.st1{fill:none;stroke:#020202;stroke-width:0.2;stroke-miterlimit:10;}
	.st2{fill:#7F7F7F;}
	.st3{fill:#FFFFFF;}
	.st4{fill:none;stroke:#7F7F7F;stroke-width:0.2;stroke-miterlimit:10;}
	.st5{fill:none;stroke:#7F7F7F;stroke-width:0.2;stroke-miterlimit:10;stroke-dasharray:1.1971,1.1971;}
	.st6{fill:none;stroke:#7F7F7F;stroke-width:0.2;stroke-miterlimit:10;stroke-dasharray:1.2216,1.2216;}
	.st7{fill:none;stroke:#7F7F7F;stroke-width:0.2;stroke-miterlimit:10;stroke-dasharray:1.2;}
	.st8{fill:none;stroke:#7F7F7F;stroke-width:0.2;stroke-miterlimit:10;stroke-dasharray:0.7856,0.7856;}
	.st9{fill:none;stroke:#7F7F7F;stroke-width:0.2;stroke-miterlimit:10;stroke-dasharray:0.7823,0.7823;}
	.st10{fill:#636363;}
	.st11{fill:#494949;}
	.st12{fill:#2B2B2B;}
	.st13{fill:#FDFDFD;}
	.st14{fill:#103332;}
	.st15{fill:#206664;}
	.st16{fill:#309996;}
	.st17{fill:#40CCC8;}
	.st18{fill:#4DFFFF;}
	.st19{fill:#FF4D00;}
	.st20{fill:#330D00;}
	.st21{fill:#661A00;}
	.st22{fill:#992800;}
	.st23{fill:#CC3500;}
	.st24{fill:#FFD9CC;}
	.st25{fill:#FFB399;}
	.st26{fill:#FF8E66;}
	.st27{fill:#FF6833;}
	.st28{fill:#DCFFFE;}
	.st29{fill:#B9FFFD;}
	.st30{fill:#96FFFC;}
	.st31{fill:#73FFFB;}
	.st32{opacity:0.9;clip-path:url(#SVGID_8_);}
	.st33{fill:url(#SVGID_10_);}
	.st34{fill:url(#SVGID_11_);}
	.st35{fill:url(#SVGID_12_);}
	.st36{fill:url(#SVGID_13_);}
	.st37{enable-background:new    ;}
	.st38{fill:#1A1A1A;}
	.st39{fill:#1D1D1D;}
	.st40{clip-path:url(#SVGID_15_);enable-background:new    ;}
	.st41{fill:#202020;}
	.st42{clip-path:url(#SVGID_17_);enable-background:new    ;}
	.st43{clip-path:url(#SVGID_19_);enable-background:new    ;}
	.st44{clip-path:url(#SVGID_21_);enable-background:new    ;}
	.st45{fill:#343434;}
	.st46{clip-path:url(#SVGID_23_);}
	.st47{clip-path:url(#SVGID_25_);}
	.st48{clip-path:url(#SVGID_29_);enable-background:new    ;}
	.st49{clip-path:url(#SVGID_31_);}
	.st50{clip-path:url(#SVGID_35_);enable-background:new    ;}
	.st51{clip-path:url(#SVGID_37_);enable-background:new    ;}
	.st52{clip-path:url(#SVGID_39_);}
	.st53{clip-path:url(#SVGID_41_);}
	.st54{clip-path:url(#SVGID_45_);}
	.st55{fill:none;stroke:url(#SVGID_48_);stroke-width:5.000000e-02;}
	.st56{fill:none;stroke:url(#SVGID_49_);stroke-width:5.000000e-02;}
	.st57{fill:none;stroke:url(#SVGID_50_);stroke-width:5.000000e-02;}
	.st58{fill:none;stroke:url(#SVGID_51_);stroke-width:5.000000e-02;}
	.st59{fill:none;stroke:#494949;stroke-width:0.1;stroke-miterlimit:10;}
	.st60{fill:none;stroke:#1D1D1B;stroke-width:5.365854e-02;}
	.st61{fill:url(#SVGID_52_);}
	.st62{fill:url(#SVGID_53_);}
	.st63{fill:url(#SVGID_54_);}
	.st64{fill:url(#SVGID_55_);}
	.st65{fill:url(#SVGID_56_);}
	.st66{fill:url(#SVGID_57_);}
	.st67{clip-path:url(#SVGID_61_);fill:#020202;}
	.st68{fill:url(#SVGID_62_);}
	.st69{opacity:0.9;clip-path:url(#SVGID_64_);}
	.st70{fill:#9F9F9F;}
	.st71{fill:#BFBFBF;}
	.st72{fill:#DFDFDF;}
	.st73{display:none;}
</style>
<g id="Capa_1">
	<g>
		<g>
			<path class="st0" d="M104.8,20.5H88.2v-1c0-1.8,0.8-3.7,2-5.2c1.5-1.7,3.3-2.7,5.2-2.7c2.8,0,4.7-0.5,5.9-1.5
				c1-0.8,1.4-2.2,1.5-4H88.2v-2h16.6v1.7c0,1.2-0.2,2.3-0.5,3.2c-0.4,1.1-0.9,2-1.7,2.6c-1.5,1.3-3.8,2-7.2,2c-1.8,0-3.1,1.2-3.7,2
				c-0.8,0.9-1.3,1.9-1.5,2.9h14.5V20.5z"/>
			<path class="st0" d="M37.5,9v6.6c0,1.6,1.4,2.9,3,2.9h10v2h-10c-2.7,0-4.9-2.2-4.9-4.9V9c0-2.7,2.2-4.9,4.9-4.9h10V6h-10
				C38.8,6,37.5,7.4,37.5,9z"/>
			<path class="st0" d="M86.2,4.1v12.1c0,2.4-1.9,4.3-4.3,4.3h-8c-2.4,0-4.3-2-4.3-4.3V4.1h1.9v12.1c0,1.3,1.1,2.4,2.4,2.4h8
				c1.3,0,2.4-1.1,2.4-2.4V4.1H86.2z"/>
			<path class="st0" d="M154.9,11.2v9.3h-9.8c-2.7,0-4.9-2.1-4.9-4.8v-1.1h1.9v1.1c0,1.6,1.3,2.9,3,2.9h7.8v-5.5h-26v2.5
				c0,1.6,1.4,3,3,3h9.8v1.9H130c-2.7,0-4.9-2.2-4.9-4.9V9c0-2.7,2.2-4.9,4.9-4.9h9.8V6H130c-1.6,0-3,1.3-3,3v2.2H154.9z M154.9,4.1
				V6h-9.8c-1.6,0-3,1.3-3,2.9V10h-1.9V8.9c0-2.6,2.2-4.8,4.9-4.8H154.9z"/>
			<path class="st0" d="M192,20.5h-2.1l-5.3-13.7c-0.2-0.4-0.6-0.7-1-0.7c-0.5,0-0.9,0.2-1.1,0.7l-6.3,13.8h-2.1l6.7-14.6
				c0.5-1.1,1.6-1.8,2.9-1.8c1.2,0,2.3,0.7,2.8,1.9L192,20.5z"/>
			<path class="st0" d="M116.5,19.2l-7.6-12.3v13.6h-2V4.1h2.3l8.8,13.9c0.3,0.4,0.8,0.6,1.3,0.6c1,0,1.7-0.8,1.7-1.8V4.1h2v12.7
				c0,2.1-1.6,3.8-3.7,3.8C118.3,20.6,117.2,20,116.5,19.2L116.5,19.2z"/>
			<path class="st0" d="M159.2,6.1h8c1.6,0,3,1.2,3,2.6c0,2.4-1.8,2.9-5.8,3.3c-2.2,0.2-3.8,1-5,2.4c-0.1,0.1-0.1,0.2-0.2,0.2V6.1z
				 M172.7,20.5L172.7,20.5c0-0.1,0-0.1,0-0.2c0-0.1,0-0.1,0-0.2c0-0.9-0.2-1.8-0.5-2.7c0,0,0,0,0,0c-0.4-1.1-0.9-2.1-1.7-3
				c-0.4-0.5-1-1-1.5-1.3c0.1,0,0.2-0.1,0.3-0.1c1.8-0.8,2.7-2.2,2.7-4.2c0-2.5-2.2-4.6-5-4.6h-9.9v16.4h2c0-3.3,2.3-6.6,5.8-6.6
				c2.5,0,4.8,1.9,5.5,4.6c0.2,0.6,0.3,1.3,0.3,1.9H172.7z"/>
			<path class="st0" d="M54.5,6.1h8c1.6,0,3,1.2,3,2.6c0,2.4-1.8,2.9-5.8,3.3c-2.2,0.2-3.8,1-5,2.4c-0.1,0.1-0.1,0.2-0.2,0.2V6.1z
				 M68.1,20.5L68.1,20.5c0-0.1,0-0.1,0-0.2c0-0.1,0-0.1,0-0.2c0-0.9-0.2-1.8-0.5-2.7c0,0,0,0,0,0c-0.4-1.1-0.9-2.1-1.7-3
				c-0.4-0.5-1-1-1.5-1.3c0.1,0,0.2-0.1,0.3-0.1c1.8-0.8,2.7-2.2,2.7-4.2c0-2.5-2.2-4.6-5-4.6h-9.9v16.4h2c0-3.3,2.3-6.6,5.8-6.6
				c2.5,0,4.8,1.9,5.5,4.6c0.2,0.6,0.3,1.3,0.3,1.9H68.1z"/>
		</g>
		<g>
			<path class="st0" d="M106.9,32.7v-5.5h1.8c0.9,0,1.5,0.2,2,0.7c0.5,0.5,0.7,1.2,0.7,2c0,0.8-0.2,1.5-0.7,2
				c-0.5,0.5-1.2,0.8-2,0.8H106.9z M107.6,27.8v4.2h1.1c0.7,0,1.2-0.2,1.5-0.6c0.4-0.4,0.5-0.9,0.5-1.5c0-0.7-0.2-1.2-0.5-1.5
				c-0.4-0.4-0.9-0.6-1.5-0.6H107.6z"/>
			<path class="st0" d="M112.9,32.2c-0.4-0.4-0.5-0.9-0.5-1.5c0-0.6,0.2-1.1,0.5-1.5c0.3-0.4,0.8-0.6,1.4-0.6c0.6,0,1,0.2,1.4,0.5
				c0.3,0.3,0.5,0.8,0.5,1.4c0,0.1,0,0.1,0,0.3H113v0.1c0,0.4,0.1,0.7,0.4,0.9c0.2,0.2,0.5,0.4,0.9,0.4c0.6,0,1-0.3,1.1-0.8h0.7
				c-0.1,0.4-0.3,0.7-0.6,1c-0.3,0.3-0.7,0.4-1.2,0.4C113.7,32.7,113.3,32.5,112.9,32.2z M115.5,30.3c0-0.3-0.2-0.6-0.4-0.8
				c-0.2-0.2-0.5-0.3-0.8-0.3c-0.3,0-0.6,0.1-0.8,0.3c-0.2,0.2-0.4,0.5-0.4,0.8H115.5z"/>
			<path class="st0" d="M117.6,31.4c0,0.2,0.1,0.4,0.3,0.6c0.2,0.2,0.5,0.2,0.8,0.2c0.3,0,0.5-0.1,0.7-0.2c0.2-0.1,0.3-0.3,0.3-0.4
				c0-0.2-0.1-0.3-0.2-0.4c0,0-0.1-0.1-0.2-0.1c-0.1,0-0.2,0-0.3-0.1c-0.1,0-0.2,0-0.3,0c0,0,0,0,0,0c-0.3,0-0.5-0.1-0.8-0.2
				c-0.1,0-0.2-0.1-0.3-0.1c-0.3-0.2-0.5-0.4-0.5-0.8c0-0.4,0.1-0.6,0.4-0.9c0.3-0.2,0.7-0.3,1.1-0.3c0.5,0,0.8,0.1,1.1,0.3
				c0.3,0.2,0.5,0.5,0.5,0.9h-0.7c0-0.2-0.1-0.4-0.3-0.5c-0.2-0.1-0.4-0.2-0.7-0.2c-0.6,0-0.9,0.2-0.9,0.6c0,0.2,0.1,0.4,0.3,0.4
				c0.1,0.1,0.3,0.1,0.4,0.1c0.1,0,0.2,0,0.3,0c0.3,0,0.5,0.1,0.7,0.1c0.2,0.1,0.4,0.1,0.6,0.2c0.2,0.2,0.4,0.4,0.4,0.8
				c0,0.4-0.2,0.7-0.5,0.9c-0.3,0.2-0.7,0.3-1.1,0.3c-0.5,0-1-0.1-1.3-0.4c-0.3-0.2-0.5-0.6-0.5-1H117.6z"/>
			<path class="st0" d="M121.6,28c-0.1,0-0.2,0-0.3-0.1c-0.1-0.1-0.1-0.2-0.1-0.3s0-0.2,0.1-0.3c0.1-0.1,0.2-0.1,0.3-0.1
				c0.1,0,0.2,0,0.3,0.1c0.1,0.1,0.1,0.2,0.1,0.3s0,0.2-0.1,0.3C121.9,28,121.8,28,121.6,28z M121.3,32.7v-4h0.6v4H121.3z"/>
			<path class="st0" d="M126.3,28.7h0.6v3.8c0,1.2-0.7,1.8-2,1.8c-0.5,0-0.9-0.1-1.3-0.4c-0.3-0.2-0.5-0.6-0.6-1h0.7
				c0.1,0.5,0.6,0.8,1.2,0.8c0.9,0,1.3-0.4,1.3-1.3V32c-0.3,0.5-0.7,0.7-1.4,0.7c-0.6,0-1-0.2-1.4-0.5c-0.4-0.4-0.5-0.9-0.5-1.5
				c0-0.6,0.2-1.1,0.5-1.5c0.4-0.4,0.8-0.6,1.4-0.6c0.6,0,1.1,0.2,1.4,0.7L126.3,28.7z M125.9,31.7c0.2-0.3,0.4-0.6,0.4-1
				c0-0.4-0.1-0.8-0.4-1.1c-0.2-0.3-0.6-0.4-1-0.4c-0.4,0-0.7,0.1-1,0.4c-0.2,0.3-0.4,0.6-0.4,1.1c0,0.4,0.1,0.8,0.4,1.1
				c0.2,0.3,0.6,0.4,1,0.4C125.3,32.2,125.6,32,125.9,31.7z"/>
			<path class="st0" d="M131.1,29c0.3,0.3,0.5,0.8,0.5,1.4v2.2H131v-2.2c0-0.8-0.4-1.3-1.1-1.3c-0.4,0-0.7,0.1-0.9,0.4
				c-0.2,0.3-0.3,0.6-0.3,1.1v2H128v-4h0.6l0.1,0.5c0.3-0.4,0.7-0.6,1.3-0.6C130.5,28.6,130.8,28.8,131.1,29z"/>
			<path class="st0" d="M136.7,30.7l-2.1-3.5h0.8l1.6,2.7l1.6-2.7h0.8l-2.1,3.5v2h-0.7V30.7z"/>
			<path class="st0" d="M141.4,32.7c-0.6,0-1.1-0.2-1.4-0.6c-0.4-0.4-0.6-0.9-0.6-1.5c0-0.6,0.2-1.1,0.6-1.5
				c0.4-0.4,0.8-0.6,1.4-0.6s1.1,0.2,1.4,0.6c0.4,0.4,0.6,0.9,0.6,1.5c0,0.6-0.2,1.1-0.6,1.5C142.5,32.5,142,32.7,141.4,32.7z
				 M141.4,32.2c0.4,0,0.7-0.1,1-0.4c0.2-0.3,0.4-0.6,0.4-1.1c0-0.4-0.1-0.8-0.4-1.1c-0.2-0.3-0.6-0.4-1-0.4s-0.7,0.1-1,0.4
				c-0.2,0.3-0.4,0.6-0.4,1.1c0,0.4,0.1,0.8,0.4,1.1C140.7,32,141,32.2,141.4,32.2z"/>
			<path class="st0" d="M147.2,28.7h0.6v4h-0.6l-0.1-0.5c-0.3,0.4-0.7,0.6-1.3,0.6c-0.5,0-0.8-0.1-1.1-0.4c-0.3-0.3-0.5-0.8-0.5-1.4
				v-2.2h0.6v2.2c0,0.8,0.4,1.3,1,1.3c0.4,0,0.6-0.1,0.9-0.4c0.2-0.3,0.3-0.6,0.3-1.1V28.7z"/>
			<path class="st0" d="M151,28.7v0.6h-0.3c-0.8,0-1.1,0.7-1.1,1.3v2H149v-4h0.6l0.1,0.6c0.1-0.2,0.3-0.3,0.4-0.4
				c0.2-0.1,0.4-0.2,0.8-0.2H151z"/>
			<path class="st0" d="M153.9,27.8v-0.6h4.2v0.6h-1.8v4.9h-0.7v-4.9H153.9z"/>
			<path class="st0" d="M160.1,32.7c-0.6,0-1.1-0.2-1.4-0.6c-0.4-0.4-0.6-0.9-0.6-1.5c0-0.6,0.2-1.1,0.6-1.5
				c0.4-0.4,0.8-0.6,1.4-0.6s1.1,0.2,1.4,0.6c0.4,0.4,0.6,0.9,0.6,1.5c0,0.6-0.2,1.1-0.6,1.5C161.2,32.5,160.7,32.7,160.1,32.7z
				 M160.1,32.2c0.4,0,0.7-0.1,1-0.4c0.2-0.3,0.4-0.6,0.4-1.1c0-0.4-0.1-0.8-0.4-1.1c-0.2-0.3-0.6-0.4-1-0.4s-0.7,0.1-1,0.4
				c-0.2,0.3-0.4,0.6-0.4,1.1c0,0.4,0.1,0.8,0.4,1.1C159.4,32,159.7,32.2,160.1,32.2z"/>
			<path class="st0" d="M168.6,29c0.3,0.3,0.4,0.7,0.4,1.3v2.3h-0.6v-2.3c0-0.8-0.3-1.2-0.9-1.2c-0.3,0-0.6,0.1-0.8,0.4
				c-0.2,0.2-0.3,0.6-0.3,1v2.1h-0.6v-2.3c0-0.8-0.3-1.2-1-1.2c-0.3,0-0.6,0.1-0.8,0.4c-0.2,0.2-0.3,0.6-0.3,1v2.1h-0.6v-4h0.6
				l0.1,0.5c0.3-0.4,0.7-0.6,1.2-0.6c0.6,0,1,0.3,1.3,0.8c0.3-0.5,0.7-0.8,1.4-0.8C168,28.6,168.3,28.8,168.6,29z"/>
			<path class="st0" d="M171.9,32.7c-0.6,0-1.1-0.2-1.4-0.6c-0.4-0.4-0.6-0.9-0.6-1.5c0-0.6,0.2-1.1,0.6-1.5
				c0.4-0.4,0.8-0.6,1.4-0.6c0.6,0,1.1,0.2,1.4,0.6c0.4,0.4,0.6,0.9,0.6,1.5c0,0.6-0.2,1.1-0.6,1.5C173,32.5,172.5,32.7,171.9,32.7z
				 M171.9,32.2c0.4,0,0.7-0.1,1-0.4c0.2-0.3,0.4-0.6,0.4-1.1c0-0.4-0.1-0.8-0.4-1.1c-0.2-0.3-0.6-0.4-1-0.4s-0.7,0.1-1,0.4
				c-0.2,0.3-0.4,0.6-0.4,1.1c0,0.4,0.1,0.8,0.4,1.1C171.2,32,171.5,32.2,171.9,32.2z"/>
			<path class="st0" d="M177,28.7v0.6h-0.3c-0.8,0-1.1,0.7-1.1,1.3v2h-0.6v-4h0.6l0.1,0.6c0.1-0.2,0.3-0.3,0.4-0.4
				c0.2-0.1,0.4-0.2,0.8-0.2H177z"/>
			<path class="st0" d="M179.8,28.7v0.6h-0.3c-0.8,0-1.1,0.7-1.1,1.3v2h-0.6v-4h0.6l0.1,0.6c0.1-0.2,0.3-0.3,0.4-0.4
				c0.2-0.1,0.4-0.2,0.8-0.2H179.8z"/>
			<path class="st0" d="M182.2,32.7c-0.6,0-1.1-0.2-1.4-0.6c-0.4-0.4-0.6-0.9-0.6-1.5c0-0.6,0.2-1.1,0.6-1.5
				c0.4-0.4,0.8-0.6,1.4-0.6s1.1,0.2,1.4,0.6c0.4,0.4,0.6,0.9,0.6,1.5c0,0.6-0.2,1.1-0.6,1.5C183.3,32.5,182.8,32.7,182.2,32.7z
				 M182.2,32.2c0.4,0,0.7-0.1,1-0.4c0.2-0.3,0.4-0.6,0.4-1.1c0-0.4-0.1-0.8-0.4-1.1c-0.2-0.3-0.6-0.4-1-0.4s-0.7,0.1-1,0.4
				c-0.2,0.3-0.4,0.6-0.4,1.1c0,0.4,0.1,0.8,0.4,1.1C181.5,32,181.9,32.2,182.2,32.2z"/>
			<path class="st0" d="M186,32.7l-1.3-4h0.7l1,3.2l1-3.2h0.6l1,3.2l1-3.2h0.6l-1.3,4h-0.7l-1-3l-1,3H186z"/>
			<path class="st0" d="M191.1,32.3c0-0.1,0-0.2,0.1-0.3c0.1-0.1,0.2-0.1,0.3-0.1c0.1,0,0.2,0,0.3,0.1c0.1,0.1,0.1,0.2,0.1,0.3
				c0,0.1,0,0.2-0.1,0.3c-0.1,0.1-0.2,0.1-0.3,0.1c-0.1,0-0.2,0-0.3-0.1C191.1,32.5,191.1,32.4,191.1,32.3z"/>
		</g>
		<g>
			<path class="st0" d="M24.6,11.3v1.9h-8.4c-1.6,0-2.9,1.3-2.9,2.9v8.4h-1.9v-8.4c0-2.7,2.2-4.8,4.8-4.8H24.6z"/>
			<path class="st0" d="M0,13.3v-1.9h8.4c1.6,0,2.9-1.3,2.9-2.9V0h1.9v8.4c0,2.7-2.2,4.8-4.8,4.8H0z"/>
		</g>
	</g>
</g>
<g id="Guías" class="st73">
</g>
</svg>
